<svg id="Layer_1" data-name="Layer 1" xmlns="http://www.w3.org/2000/svg" viewBox="0 0 300.69 58.89"><defs><style>.cls-1{fill:#df242b;}.cls-2{fill:#33aa26;}.cls-3{fill:#3716bc;}.cls-4{fill:#f6b816;}.cls-5{fill:#1096e0;}</style></defs><rect class="cls-1" width="29.29" height="6.97" rx="3.48"/><rect class="cls-2" y="51.92" width="29.29" height="6.97" rx="3.48"/><rect class="cls-1" x="40.49" width="31.9" height="6.97" rx="3.48"/><rect class="cls-3" y="12.98" width="60.65" height="6.97" rx="3.48"/><rect class="cls-4" y="38.94" width="60.65" height="6.97" rx="3.48"/><rect class="cls-2" x="40.49" y="51.92" width="31.9" height="6.97" rx="3.48"/><rect class="cls-5" y="25.96" width="48.07" height="6.97" rx="3.48"/><path class="cls-5" d="M126.63,49.64,107,28.74,125.53,9.82a5.56,5.56,0,0,0,1.72-3.5A4.43,4.43,0,0,0,126.15,3a5,5,0,0,0-3.94-1.41,7.23,7.23,0,0,0-3.36.75,10.63,10.63,0,0,0-2.78,2.16l-21,21.93h-.16V7.69q0-6.22-6.06-6.23a6.13,6.13,0,0,0-4.59,1.62,6.29,6.29,0,0,0-1.57,4.61V52.15a6.38,6.38,0,0,0,1.57,4.64,6,6,0,0,0,4.59,1.66,5.8,5.8,0,0,0,4.52-1.66,6.54,6.54,0,0,0,1.54-4.64V32.35h.16l21.29,22.41a19,19,0,0,0,3,2.76,6.41,6.41,0,0,0,3.67.93,5.49,5.49,0,0,0,4-1.37,4.54,4.54,0,0,0,1.34-3.44A6.09,6.09,0,0,0,126.63,49.64Z"/><path class="cls-3" d="M182.4,3.08A5.83,5.83,0,0,0,178,1.46c-4.07,0-6.08,2.08-6.08,6.23V34.57q0,13.63-11.91,13.63-5.82,0-8.9-3.42C149,42.5,148,39.1,148,34.57V7.69c0-4.15-2-6.23-6.08-6.23a6.08,6.08,0,0,0-4.57,1.62,6.33,6.33,0,0,0-1.57,4.61v26.8q0,12,6.18,18t18,6.08c7.88,0,13.86-2,17.9-6.08s6.06-10.06,6.06-18V7.69A6.4,6.4,0,0,0,182.4,3.08Z"/><path class="cls-4" d="M239,50.34l-4.89-9.07c-1.79-3.21-4.07-5.22-6.85-6.07a16,16,0,0,0,9.09-5.63,16.47,16.47,0,0,0,3.19-10.37q0-8.05-5-12.53t-14.34-4.5H201a6.22,6.22,0,0,0-6.22,6.22V52.15a6.38,6.38,0,0,0,1.58,4.64,5.94,5.94,0,0,0,4.56,1.66,5.84,5.84,0,0,0,4.54-1.66A6.54,6.54,0,0,0,207,52.15V11.71h10.95c6.58,0,9.86,2.59,9.86,7.8s-3.28,7.88-9.86,7.88h0a4.36,4.36,0,0,0-4.35,4.36v.92a4.21,4.21,0,0,0,2.72,4A6.36,6.36,0,0,1,217,37,6.43,6.43,0,0,1,220,40l7.57,14a8.57,8.57,0,0,0,2.84,3.38,7.54,7.54,0,0,0,4.26,1.1c2.61,0,4.27-.85,5-2.55A6.27,6.27,0,0,0,239,50.34Z"/><path class="cls-1" d="M299.91,50.82,279.57,6.59a8.92,8.92,0,0,0-2.92-3.9,6.71,6.71,0,0,0-4-1.23,6.64,6.64,0,0,0-4,1.23,9.6,9.6,0,0,0-3,3.9L245.42,50.82c-1,2.16-1,4-.06,5.43s2.51,2.2,4.73,2.2a5.34,5.34,0,0,0,3.78-1.22,11.57,11.57,0,0,0,2.53-4l3.22-7.56h25.95l3.3,7.56a10.34,10.34,0,0,0,2.57,3.94,6.09,6.09,0,0,0,4.13,1.26A4.9,4.9,0,0,0,300,56.3C300.94,54.84,300.9,53,299.91,50.82ZM263.72,36.15l8.76-21h.14l8.93,21Z"/></svg>